<?xml version="1.0" standalone="no"?><!DOCTYPE svg PUBLIC "-//W3C//DTD SVG 1.1//EN" "http://www.w3.org/Graphics/SVG/1.1/DTD/svg11.dtd">
<!--<svg t="1619167969617" class="icon" viewBox="0 0 1024 1024" version="1.1" xmlns="http://www.w3.org/2000/svg" p-id="2277" width="200" height="200"><path d="M518.920828 997.446621c198.550069 2.754207 309.318621-77.34731 370.899862-162.23338 63.611586-87.675586 84.109241-199.20331 64.388413-305.840551C882.829241 143.677793 518.920828 146.944 518.920828 146.944S155.030069 143.677793 83.650207 529.390345c-19.738483 106.637241 0.776828 218.14731 64.388414 305.840552 61.563586 84.868414 172.332138 164.969931 370.882207 162.215724z" fill="#FDC794" p-id="2278"></path><path d="M494.892138 783.042207a27.630345 27.630345 0 0 1 5.031724-31.885241c15.32469-15.448276 41.701517-40.712828 70.320552-62.163863a114.158345 114.158345 0 0 0-74.010483-9.339586c-46.662621 9.586759-83.473655 48.745931-89.988414 95.955862a114.811586 114.811586 0 0 0 116.171035 131.107311c45.161931-0.971034 85.274483-30.578759 103.194482-72.050759 10.822621-25.070345 10.857931-48.534069 5.632-69.949793-14.830345 12.358621-33.297655 25.794207-56.337655 40.342069-28.036414 17.655172-65.218207 7.591724-80.013241-22.016z" fill="#DF4D60" p-id="2279"></path><path d="M79.430621 558.291862c-7.997793-7.574069-17.390345-12.129103-27.524414-12.129103-28.672 0-51.906207 34.957241-51.906207 78.106482 0 43.131586 23.234207 78.106483 51.888552 78.106483 12.129103 0 23.145931-6.532414 31.973517-17.019586a417.31531 417.31531 0 0 1-4.431448-127.064276zM1020.875034 490.725517c-9.939862-41.966345-40.606897-70.603034-68.484413-63.947034-8.66869 2.065655-15.854345 7.591724-21.627587 15.095172a570.968276 570.968276 0 0 1 23.446069 87.51669c2.736552 14.777379 4.608 29.643034 5.790897 44.526345 9.18069 5.014069 18.926345 7.097379 28.389517 4.837517 27.877517-6.656 42.425379-46.062345 32.485517-88.02869z" fill="#F9A671" p-id="2280"></path><path d="M247.172414 456.545103a132.413793 105.931034 90 1 0 211.862069 0 132.413793 105.931034 90 1 0-211.862069 0Z" fill="#FFFFFF" p-id="2281"></path><path d="M300.137931 456.545103a79.448276 52.965517 90 1 0 105.931035 0 79.448276 52.965517 90 1 0-105.931035 0Z" fill="#7F5B53" p-id="2282"></path><path d="M564.965517 456.545103a132.413793 105.931034 90 1 0 211.862069 0 132.413793 105.931034 90 1 0-211.862069 0Z" fill="#FFFFFF" p-id="2283"></path><path d="M617.931034 456.545103a79.448276 52.965517 90 1 0 105.931035 0 79.448276 52.965517 90 1 0-105.931035 0Z" fill="#7F5B53" p-id="2284"></path><path d="M512.070621 164.740414a17.655172 17.655172 0 0 1-17.655173-17.655173c0-67.61931 54.254345-120.602483 123.515586-120.602482a17.655172 17.655172 0 1 1 0 35.310344c-49.469793 0-88.205241 37.464276-88.205241 85.292138a17.655172 17.655172 0 0 1-17.655172 17.655173z" fill="#5E5F62" p-id="2285"></path><path d="M599.781517 669.113379c-33.31531 20.374069-64.529655 51.182345-83.809103 72.103724a38.064552 38.064552 0 0 0-3.601655 46.945104 38.241103 38.241103 0 0 0 49.522758 12.588138c48.834207-25.56469 75.970207-38.488276 96.344276-59.956966 36.563862-38.541241-13.135448-99.398621-58.456276-71.68z" fill="#FB7B76" p-id="2286"></path><path d="M544.079448 822.836966c-18.114207 0-35.698759-8.827586-46.397793-24.858483a55.596138 55.596138 0 0 1 5.314207-68.713931c20.833103-22.616276 52.930207-54.042483 87.569655-75.211035 27.912828-17.054897 62.040276-10.822621 82.996966 15.095173 20.868414 25.776552 19.826759 60.221793-2.52469 83.791448-20.338759 21.46869-45.391448 34.498207-86.916414 56.125793l-14.053517 7.326897a55.878621 55.878621 0 0 1-25.988414 6.444138z m79.536552-143.042207c-4.625655 0-9.551448 1.288828-14.636138 4.396138-31.143724 19.032276-60.698483 48.039724-80.013241 68.996413a20.51531 20.51531 0 0 0 24.752551 31.938207l14.141794-7.379862c39.529931-20.585931 61.316414-31.920552 77.594482-49.081379 12.288-12.958897 8.050759-28.19531 0.688552-37.270069-5.031724-6.214621-13.100138-11.599448-22.528-11.599448z m-23.834483-10.663725h0.176552-0.176552z" fill="#FB7B76" p-id="2287"></path></svg>-->
<svg t="1581238998885" class="icon" viewBox="0 0 1024 1024" version="1.1" xmlns="http://www.w3.org/2000/svg" p-id="4187" xmlns:xlink="http://www.w3.org/1999/xlink" width="200" height="200"><defs><style type="text/css"></style></defs><path d="M511.542857 14.057143C228.914286 13.942857 0 242.742857 0 525.142857 0 748.457143 143.2 938.285714 342.628571 1008c26.857143 6.742857 22.742857-12.342857 22.742858-25.371429v-88.571428c-155.085714 18.171429-161.371429-84.457143-171.771429-101.6C172.571429 756.571429 122.857143 747.428571 137.714286 730.285714c35.314286-18.171429 71.314286 4.571429 113.028571 66.171429 30.171429 44.685714 89.028571 37.142857 118.857143 29.714286 6.514286-26.857143 20.457143-50.857143 39.657143-69.485715-160.685714-28.8-227.657143-126.857143-227.657143-243.428571 0-56.571429 18.628571-108.571429 55.2-150.514286-23.314286-69.142857 2.171429-128.342857 5.6-137.142857 66.4-5.942857 135.428571 47.542857 140.8 51.771429 37.714286-10.171429 80.8-15.542857 129.028571-15.542858 48.457143 0 91.657143 5.6 129.714286 15.885715 12.914286-9.828571 76.914286-55.771429 138.628572-50.171429 3.314286 8.8 28.228571 66.628571 6.285714 134.857143 37.028571 42.057143 55.885714 94.514286 55.885714 151.2 0 116.8-67.428571 214.971429-228.571428 243.314286a145.714286 145.714286 0 0 1 43.542857 104v128.571428c0.914286 10.285714 0 20.457143 17.142857 20.457143 202.4-68.228571 348.114286-259.428571 348.114286-484.685714 0-282.514286-229.028571-511.2-511.428572-511.2z" p-id="4188"></path></svg>
